<?xml version="1.0" encoding="UTF-8" standalone="no"?>
<!DOCTYPE svg PUBLIC "-//W3C//DTD SVG 1.1//EN" "http://www.w3.org/Graphics/SVG/1.1/DTD/svg11.dtd">
<svg version="1.1" xmlns="http://www.w3.org/2000/svg" xmlns:xlink="http://www.w3.org/1999/xlink" preserveAspectRatio="xMidYMid meet" viewBox="0 0 106.667 106.667" width="106.67" height="106.67"><defs><path d="M28 2.66L54.67 2.66L54.67 104L28 104L28 2.66Z" id="bmcZBUAt"></path><path d="M53.34 2.66L80 2.66L80 104L53.34 104L53.34 2.66Z" id="bZMzY5fH"></path><path d="M42.37 2.66C48.43 2.66 53.34 7.57 53.34 13.63C53.34 31.71 53.34 74.96 53.34 93.03C53.34 99.09 48.43 104 42.37 104C34.43 104 21.58 104 13.64 104C7.58 104 2.67 99.09 2.67 93.03C2.67 74.96 2.67 31.71 2.67 13.63C2.67 7.57 7.58 2.66 13.64 2.66C21.58 2.66 34.43 2.66 42.37 2.66Z" id="e777DH9ONs"></path><path d="M93.03 2.67C99.09 2.67 104 7.58 104 13.64C104 31.71 104 74.96 104 93.03C104 99.09 99.09 104 93.03 104C85.09 104 72.24 104 64.3 104C58.24 104 53.33 99.09 53.33 93.03C53.33 74.96 53.33 31.71 53.33 13.64C53.33 7.58 58.24 2.67 64.3 2.67C72.24 2.67 85.09 2.67 93.03 2.67Z" id="dnbnYnRlV"></path><path d="M74.23 26.66C77.42 26.66 80 29.25 80 32.44C80 41.95 80 64.71 80 74.22C80 77.41 77.42 80 74.23 80C70.05 80 63.29 80 59.11 80C55.92 80 53.34 77.41 53.34 74.22C53.34 64.71 53.34 41.95 53.34 32.44C53.34 29.25 55.92 26.66 59.11 26.66C63.29 26.66 70.05 26.66 74.23 26.66Z" id="b5YFV9KWx9"></path><path d="M53.34 26.67L66.67 26.67L66.67 80L53.34 80L53.34 26.67Z" id="a1SsZgonyd"></path></defs><g><g><g><use xlink:href="#bmcZBUAt" opacity="1" fill="#220000" fill-opacity="1"></use></g><g><use xlink:href="#bZMzY5fH" opacity="1" fill="#002200" fill-opacity="1"></use></g><g><use xlink:href="#e777DH9ONs" opacity="1" fill="#220000" fill-opacity="1"></use></g><g><use xlink:href="#dnbnYnRlV" opacity="1" fill="#002200" fill-opacity="1"></use></g><g><use xlink:href="#b5YFV9KWx9" opacity="1" fill="#00ae00" fill-opacity="1"></use></g><g><use xlink:href="#a1SsZgonyd" opacity="1" fill="#00ae00" fill-opacity="1"></use></g></g></g></svg>